<?xml version="1.0" encoding="UTF-8"?>
<svg width="28px" height="28px" viewBox="0 0 28 28" version="1.1" xmlns="http://www.w3.org/2000/svg" xmlns:xlink="http://www.w3.org/1999/xlink">
    <!-- Generator: Sketch 49.3 (51167) - http://www.bohemiancoding.com/sketch -->
    <title>noun_Truck Repair_1744825</title>
    <desc>Created with Sketch.</desc>
    <defs></defs>
    <g id="Page-1" stroke="none" stroke-width="1" fill="none" fill-rule="evenodd">
        <g id="noun_Truck-Repair_1744825" fill="#7A43C0">
            <path d="M19,17 L22,17 L22,15 L19,15 L19,17 Z M19,25 L28,25 L28,23 L19,23 L19,25 Z M11,26 C8.794,26 7,24.206 7,22 C7,19.794 8.794,18 11,18 C13.206,18 15,19.794 15,22 C15,24.206 13.206,26 11,26 Z M25,4.57494353e-16 L17.236,4.57494353e-16 C16.0988642,-0.00349571004 15.0585177,0.639401982 14.553,1.658 L12.605,5.553 L14.395,6.447 L16.342,2.553 C16.5099935,2.21311316 16.8568658,1.99854899 17.236,2 L21,2 L21,8 C21,8.55228475 20.5522847,9 20,9 L13.303,9 L5.52,3.811 C4.62366256,3.21610228 3.47785903,3.14518066 2.515,3.625 L1.553,4.105 L2.447,5.895 L3.41,5.414 C3.73066122,5.25375845 4.11256394,5.27741276 4.411,5.476 L12.697,11 L20,11 C21.654,11 23,9.654 23,8 L23,2 L25,2 C25.5522847,2 26,2.44771525 26,3 L26,19 L16.188,19 C15.1176608,17.1461135 13.1406804,16.0029098 11,16 C8.85931961,16.0029098 6.88233921,17.1461135 5.812,19 L2,19 L2,12.694 C2,12.203 2.352,11.788 2.835,11.708 L7.164,10.986 L6.836,9.014 L2.507,9.735 C1.05823862,9.97213949 -0.0040592277,11.2259645 5.56221125e-16,12.694 L5.56221125e-16,21 L5.09,21 C5.035,21.326 5,21.658 5,22 C5,22.342 5.035,22.674 5.09,23 L8.8817842e-16,23 L8.8817842e-16,25 L5.812,25 C6.88233921,26.8538865 8.85931961,27.9970902 11,28 C14.309,28 17,25.309 17,22 C17,21.658 16.965,21.326 16.91,21 L28,21 L28,3 C28,1.346 26.654,4.57494353e-16 25,4.57494353e-16 Z" id="Shape"></path>
        </g>
    </g>
</svg>