<?xml version="1.0" encoding="UTF-8"?>
<svg width="28px" height="26px" viewBox="0 0 28 26" version="1.1" xmlns="http://www.w3.org/2000/svg" xmlns:xlink="http://www.w3.org/1999/xlink">
    <!-- Generator: Sketch 49.3 (51167) - http://www.bohemiancoding.com/sketch -->
    <title>noun_Telephone_1747697</title>
    <desc>Created with Sketch.</desc>
    <defs></defs>
    <g id="Page-1" stroke="none" stroke-width="1" fill="none" fill-rule="evenodd">
        <g id="noun_Telephone_1747697" fill="#7A43C0">
            <path d="M21,22 L24,22 L24,20 L21,20 L21,22 Z M16,22 L19,22 L19,20 L16,20 L16,22 Z M11,22 L14,22 L14,20 L11,20 L11,22 Z M21,18 L24,18 L24,16 L21,16 L21,18 Z M16,18 L19,18 L19,16 L16,16 L16,18 Z M11,18 L14,18 L14,16 L11,16 L11,18 Z M13,6 L22,6 L22.002,12 L13,12 L13,6 Z M13,14 L22,14 C23.103,14 24,13.103 24,12 L24,6 C24,4.897 23.103,4 22,4 L13,4 C11.897,4 11,4.897 11,6 L11,12 C11,13.103 11.897,14 13,14 Z M2,3 C2,2.44771525 2.44771525,2 3,2 L6,2 C6.55228475,2 7,2.44771525 7,3 L7,18 C7,18.5522847 6.55228475,19 6,19 L3,19 C2.44771525,19 2,18.5522847 2,18 L2,3 Z M25,0 L11,0 L11,2 L25,2 C25.5522847,2 26,2.44771525 26,3 L26,23 C26,23.5522847 25.5522847,24 25,24 L5,24 C4.44771525,24 4,23.5522847 4,23 L4,21 L6,21 C7.654,21 9,19.654 9,18 L9,3 C9,1.346 7.654,0 6,0 L3,0 C1.346,0 0,1.346 0,3 L0,18 C0,19.302 0.839,20.401 2,20.815 L2,23 C2,24.654 3.346,26 5,26 L25,26 C26.654,26 28,24.654 28,23 L28,3 C28,1.346 26.654,0 25,0 Z" id="Shape"></path>
        </g>
    </g>
</svg>