<?xml version="1.0" encoding="UTF-8"?>
<svg width="22px" height="32px" viewBox="0 0 22 32" version="1.1" xmlns="http://www.w3.org/2000/svg" xmlns:xlink="http://www.w3.org/1999/xlink">
    <!-- Generator: Sketch 49.3 (51167) - http://www.bohemiancoding.com/sketch -->
    <title>noun_Charity_1747740</title>
    <desc>Created with Sketch.</desc>
    <defs></defs>
    <g id="Page-1" stroke="none" stroke-width="1" fill="none" fill-rule="evenodd">
        <g id="noun_Charity_1747740" fill="#7A43C0">
            <path d="M10.3,27.6 L8.7,26.4 L7.064,28.58 L5.864,26.847 L3.864,26.181 L6.55,22.6 L4.95,21.4 L0.6,27.2 L4.6,28.535 L7,32 L10.3,27.6 Z M15,32 L3,16 C1.69635951,14.2718825 0.993958098,12.1646783 1,10 C1,4.487 5.486,0 11,0 C16.514,0 21,4.487 21,10 C21.0053813,12.164572 20.3030482,14.2715712 19,16 L17.05,18.6 L15.45,17.4 L17.4,14.8 C18.442557,13.4173192 19.0044371,11.7316788 19,10 C19,5.589 15.411,2 11,2 C6.59,2 3,5.589 3,10 C3,11.746 3.553,13.407 4.6,14.8 L14.935,28.58 L16.135,26.847 L18.135,26.181 L7.8,12.4 C7.27888584,11.7085732 6.99796473,10.8658099 7,10 C7,7.794 8.794,6 11,6 C13.205,6 15,7.794 15,10 C15,10.873 14.723,11.704 14.2,12.4 L13.798,12.935 L12.201,11.732 L12.601,11.199 C13.0526212,10.5922882 13.1239764,9.78292163 12.785474,9.10655113 C12.4469716,8.43018063 11.756344,8.00216276 11,8 C10.2434775,8.00225943 9.55277315,8.43056488 9.21444447,9.10722224 C8.87611579,9.78387959 8.94789402,10.5934263 9.4,11.2 L21.4,27.2 L17.4,28.535 L15,32 Z" id="Shape"></path>
        </g>
    </g>
</svg>